<svg width="58" height="104" viewBox="0 0 58 104" fill="none" xmlns="http://www.w3.org/2000/svg">
<path d="M10.1069 26.7717L10.2908 17.4643L13.1945 10.9676C13.1945 10.9676 13.5777 10.282 13.8768 10.6326C14.1759 10.9831 13.8113 11.4113 13.8113 11.4113C13.8113 11.4113 14.4781 11.2779 14.3721 11.8984C14.2662 12.5189 14.0606 13.3597 14.0606 13.3597C14.0606 13.3597 14.1946 14.1043 13.4967 15.4166C12.7988 16.729 12.7458 17.3122 12.7458 17.3122C12.7458 17.3122 13.6275 18.5532 14.3254 18.8387C14.6293 18.9728 14.9683 19.0066 15.2929 18.9351C15.6174 18.8637 15.9105 18.6907 16.1293 18.4415C16.6642 18.0143 17.2439 17.6461 17.8585 17.3433L18.7339 18.4136C18.7339 18.4136 17.3911 19.8687 17.1388 20.3713C16.8864 20.8739 16.1418 22.7695 15.366 23.4242C14.5902 24.0788 14.4033 26.3219 14.4033 26.3219C14.4033 26.3219 14.0139 28.6519 10.1069 26.7717Z" fill="#FFBE9D"/>
<path d="M10.9949 17.9481C11.0746 17.6303 11.1787 17.3192 11.3064 17.0174C11.5214 16.4527 11.8267 15.6802 12.1757 14.827L12.6742 13.6263C12.7494 13.4437 12.8547 13.2749 12.9857 13.1268C13.1068 12.9949 13.2655 12.9028 13.4406 12.8631C13.5139 12.8461 13.5901 12.8444 13.6641 12.8583C13.7381 12.8722 13.8084 12.9013 13.8705 12.9438C13.9616 13.0075 14.0293 13.099 14.0637 13.2044C14.1136 13.3874 14.0357 13.4805 14.0325 13.4712C14.042 13.3884 14.0324 13.3046 14.0045 13.2261C13.9605 13.1263 13.8816 13.0458 13.7824 12.9996C13.6833 12.9534 13.5707 12.9445 13.4655 12.9748C13.3175 13.016 13.1851 13.1003 13.0854 13.2168C12.9695 13.3568 12.8779 13.5152 12.8144 13.6853C12.6648 14.0607 12.5028 14.464 12.3283 14.889C11.9794 15.7391 11.6585 16.5085 11.4155 17.0608C11.3011 17.368 11.1603 17.6649 10.9949 17.9481Z" fill="#EB996E"/>
<path d="M13.4936 11.4981C13.5154 11.5167 13.2631 11.8084 12.964 12.3172C12.5904 13.0066 12.2777 13.727 12.0293 14.4703C11.7822 15.223 11.463 15.9503 11.0759 16.6421C10.9544 16.8503 10.8147 17.0476 10.6585 17.2315C10.5494 17.3618 10.484 17.427 10.4746 17.4208C10.4653 17.4146 10.6896 17.1105 10.9763 16.5831C11.3298 15.8823 11.6307 15.1564 11.8767 14.4114C12.1236 13.6536 12.4537 12.9252 12.8612 12.2396C12.9333 12.1223 13.0124 12.0094 13.098 11.9014C13.1588 11.8173 13.2254 11.7375 13.2974 11.6626C13.4157 11.554 13.4843 11.4888 13.4936 11.4981Z" fill="#EB996E"/>
<path d="M13.7766 22.0993C13.6841 21.9393 13.6317 21.7594 13.6239 21.575C13.5719 21.1301 13.6417 20.6795 13.826 20.2709C14.0103 19.8623 14.3022 19.5111 14.6707 19.2543C14.8142 19.135 14.9857 19.0539 15.1692 19.0185C15.1692 19.0433 14.9948 19.1364 14.7424 19.3443C14.4113 19.6097 14.1478 19.9492 13.9735 20.3352C13.7991 20.7213 13.7189 21.1429 13.7392 21.5656C13.7485 21.8914 13.8015 22.09 13.7766 22.0993Z" fill="#EB996E"/>
<path d="M13.4936 23.7932C13.5062 23.7131 13.5062 23.6314 13.4936 23.5512C13.4506 23.331 13.3913 23.1143 13.316 22.9028C13.1415 22.3568 12.8549 21.6153 12.5901 20.7745C12.4558 20.3785 12.3619 19.97 12.3097 19.5552C12.2945 19.3664 12.3178 19.1764 12.3782 18.9968C12.4281 18.8417 12.4748 18.6927 12.5184 18.55C12.5877 18.3391 12.61 18.1157 12.5838 17.8954C12.5589 17.7434 12.5122 17.6627 12.5247 17.6565C12.5863 17.7182 12.6276 17.7972 12.643 17.883C12.7021 18.1109 12.7021 18.35 12.643 18.5779C12.6088 18.7207 12.562 18.8727 12.5215 19.034C12.4687 19.1981 12.4517 19.3716 12.4717 19.5428C12.5306 19.9455 12.6255 20.3421 12.7552 20.728C13.02 21.5594 13.2911 22.3102 13.4406 22.8687C13.5062 23.0892 13.549 23.3158 13.5684 23.545C13.5684 23.7126 13.5029 23.8025 13.4936 23.7932Z" fill="#EB996E"/>
<path d="M8.11573 84.2641L8.68588 92.8146C8.68588 92.8146 0.136763 95.641 0.0869141 97.2294L16.7895 97.3504L16.453 83.988L8.11573 84.2641Z" fill="#FF725E"/>
<g opacity="0.6">
<path opacity="0.6" d="M13.8237 91.9427C13.9858 91.9865 14.1259 92.0883 14.2173 92.2285C14.3087 92.3688 14.3449 92.5376 14.3191 92.7028C14.2817 92.8656 14.1829 93.0079 14.0432 93.1003C13.9035 93.1927 13.7335 93.2281 13.5683 93.1992C13.3962 93.1524 13.2477 93.0437 13.1516 92.8941C13.0554 92.7445 13.0185 92.5647 13.048 92.3895C13.105 92.2241 13.2241 92.087 13.3804 92.0072C13.5366 91.9274 13.7179 91.9109 13.8861 91.9613" fill="white"/>
</g>
<g opacity="0.6">
<path opacity="0.6" d="M16.7898 97.3504L16.7555 96.0039L0.623114 96.4475C0.451749 96.5342 0.304927 96.6622 0.196073 96.8199C0.0872193 96.9776 0.0198064 97.16 0 97.3504H16.7898Z" fill="white"/>
</g>
<path d="M8.41214 92.74C8.41214 92.8207 8.82651 92.8455 9.23465 93.0937C9.64279 93.3419 9.85776 93.677 9.94188 93.6429C10.026 93.6087 9.87957 93.1434 9.38108 92.8517C8.88259 92.5601 8.39345 92.6656 8.41214 92.74Z" fill="#263238"/>
<path d="M6.68311 93.5126C6.68311 93.5932 7.02582 93.7204 7.30622 94.0555C7.58662 94.3906 7.68319 94.7504 7.7642 94.7442C7.8452 94.738 7.88259 94.2758 7.51807 93.8662C7.15355 93.4567 6.68311 93.435 6.68311 93.5126Z" fill="#263238"/>
<path d="M5.75113 95.6284C5.8259 95.6439 5.92871 95.2344 5.70439 94.797C5.48007 94.3595 5.08128 94.1951 5.06259 94.2633C5.0439 94.3316 5.27445 94.5736 5.45203 94.9242C5.62962 95.2747 5.67012 95.6222 5.75113 95.6284Z" fill="#263238"/>
<path d="M8.4993 90.7761C8.53669 90.8475 8.90744 90.7265 9.36854 90.742C9.82965 90.7575 10.1942 90.894 10.2347 90.8227C10.2752 90.7513 9.92312 90.4721 9.37478 90.4597C8.82644 90.4473 8.45257 90.7017 8.4993 90.7761Z" fill="#263238"/>
<g opacity="0.3">
<path opacity="0.3" d="M8.23096 85.958L8.33066 87.4813L16.5308 87.1587L16.4997 85.7843L8.23096 85.958Z" fill="black"/>
</g>
<path d="M8.41797 89.0481C8.69366 89.1146 8.98237 89.105 9.25295 89.0201C9.55251 88.9569 9.84332 88.858 10.1191 88.7254C10.2831 88.6466 10.4413 88.5564 10.5926 88.4555C10.6852 88.4021 10.7683 88.3339 10.8388 88.2538C10.89 88.194 10.9201 88.1192 10.9246 88.0408C10.9291 87.9624 10.9077 87.8847 10.8637 87.8195C10.8205 87.7645 10.7651 87.7202 10.7019 87.6901C10.6386 87.6599 10.5693 87.6448 10.4992 87.6457C10.3933 87.6485 10.2884 87.6663 10.1876 87.6985C10.0108 87.747 9.83871 87.8114 9.67355 87.8908C9.39501 88.0261 9.13954 88.2041 8.91646 88.4183C8.53948 88.7874 8.41797 89.0946 8.44601 89.1101C8.47405 89.1256 8.6641 88.8743 9.05043 88.5672C9.40495 88.2819 9.81738 88.0765 10.2593 87.9653C10.4337 87.9156 10.5708 87.9094 10.6331 87.9839C10.6955 88.0584 10.6518 88.0273 10.6176 88.0801C10.5625 88.1369 10.5008 88.1869 10.4337 88.229C10.2944 88.3247 10.1498 88.4128 10.0007 88.4927C9.74558 88.6274 9.4786 88.7386 9.2031 88.8247C8.93668 88.8816 8.67439 88.9563 8.41797 89.0481Z" fill="#263238"/>
<path d="M8.5274 89.1505C8.67754 88.9082 8.74628 88.6246 8.72368 88.3408C8.72986 87.8475 8.60173 87.3619 8.35292 86.9353C8.30472 86.8267 8.22925 86.7322 8.13376 86.661C8.03826 86.5899 7.92597 86.5443 7.8077 86.5289C7.73317 86.5334 7.66145 86.5588 7.6008 86.6022C7.54016 86.6455 7.49307 86.7051 7.46499 86.774C7.42458 86.8733 7.39836 86.9777 7.3871 87.0843C7.3634 87.2712 7.36971 87.4608 7.40579 87.6458C7.46101 87.9554 7.5927 88.2465 7.78901 88.4928C8.1286 88.9147 8.47132 89.0016 8.47755 88.9737C8.48378 88.9458 8.21272 88.7844 7.95102 88.378C7.80026 88.1432 7.70246 87.8785 7.66439 87.6024C7.64103 87.4429 7.64103 87.2809 7.66439 87.1215C7.68308 86.9446 7.74539 86.8112 7.81393 86.8112C7.88247 86.8112 8.04137 86.9384 8.12549 87.075C8.21286 87.2168 8.28691 87.3663 8.3467 87.5217C8.44879 87.7863 8.51175 88.0643 8.53363 88.347C8.55855 88.8403 8.48067 89.1505 8.5274 89.1505Z" fill="#263238"/>
<path d="M6.3649 86.6871C6.3649 86.6871 5.71374 57.4461 6.29013 54.1109C6.86651 50.7757 9.05675 47.1768 11.1348 46.8448C13.2129 46.5129 31.7287 45.2098 31.7287 45.2098H45.5276L42.007 58.535L25.1829 58.6871L19.9519 58.8081L18.2633 86.7026L6.3649 86.6871Z" fill="#263238"/>
<path d="M19.591 54.4025C19.704 54.584 19.788 54.7818 19.8403 54.9889C20.1485 55.969 20.2545 57.0011 20.1518 58.0231C20.1467 58.2353 20.1057 58.4451 20.0303 58.6436C19.9805 58.6436 20.1145 57.6787 19.9836 56.5029C19.8528 55.327 19.5412 54.418 19.591 54.4025Z" fill="#455A64"/>
<path d="M14.553 56.9C14.553 56.9 14.6246 56.8473 14.768 56.7821C14.9703 56.691 15.1784 56.6133 15.3911 56.5495C15.7062 56.4451 16.0374 56.3968 16.3694 56.4067C16.7797 56.4379 17.1738 56.5794 17.5097 56.8163C18.2169 57.2816 18.84 57.716 19.2918 58.0324C19.544 58.1923 19.7807 58.375 19.999 58.5785C19.7285 58.4518 19.4699 58.3012 19.2263 58.1286C18.759 57.8339 18.1203 57.4119 17.4224 56.9528C17.1097 56.7294 16.7431 56.5924 16.36 56.5557C16.045 56.5406 15.7295 56.5751 15.4253 56.658C14.8832 56.7977 14.5623 56.9249 14.553 56.9Z" fill="#455A64"/>
<path d="M23.8776 47.4839C23.0405 47.6697 22.1924 47.8024 21.3384 47.8811C20.4915 48.012 19.6372 48.0908 18.7805 48.1168C19.6176 47.9311 20.4657 47.7984 21.3197 47.7197C22.1666 47.5886 23.0209 47.5099 23.8776 47.4839Z" fill="#455A64"/>
<path d="M39.8759 84.3913L39.069 94.1703L36.1809 101.722C36.1313 101.851 36.109 101.988 36.1153 102.126C36.1216 102.264 36.1564 102.399 36.2175 102.523C36.2787 102.646 36.3648 102.756 36.4705 102.845C36.5763 102.934 36.6993 103.001 36.832 103.04C36.9852 103.088 37.1478 103.099 37.3058 103.07C37.4638 103.041 37.6123 102.975 37.7387 102.876C39.3868 101.604 45.4217 96.8974 45.4403 96.1808C45.4622 95.3462 46.9794 85.9208 46.9794 85.9208L39.8759 84.3913Z" fill="#FF725E"/>
<g opacity="0.6">
<path opacity="0.6" d="M36.8416 103.04L45.5278 95.5199L45.4841 95.9357C45.4459 96.2905 45.2825 96.6203 45.023 96.8664C44.322 97.5303 42.353 99.3174 37.7887 102.873C37.6586 102.975 37.505 103.043 37.3419 103.071C37.1787 103.099 37.011 103.087 36.854 103.034L36.8416 103.04Z" fill="white"/>
</g>
<g opacity="0.6">
<path opacity="0.6" d="M43.8421 92.163C43.7138 92.2401 43.6177 92.3606 43.5713 92.5025C43.525 92.6443 43.5315 92.7981 43.5898 92.9356C43.6608 93.0673 43.78 93.1668 43.9226 93.2136C44.0652 93.2604 44.2204 93.2508 44.3562 93.1869C44.4943 93.1072 44.5976 92.9791 44.646 92.8277C44.6944 92.6762 44.6843 92.5123 44.6179 92.3678C44.5272 92.241 44.3921 92.1528 44.2391 92.1206C44.0862 92.0884 43.9267 92.1146 43.7923 92.1941" fill="white"/>
</g>
<path d="M39.5301 99.0133C39.4741 99.035 39.3058 98.5014 38.7512 98.1632C38.1967 97.825 37.6515 97.8933 37.6452 97.8313C37.639 97.7692 37.773 97.7444 38.0066 97.7351C38.3112 97.7313 38.6101 97.8165 38.8665 97.9802C39.1255 98.1419 39.3321 98.3746 39.4616 98.6503C39.5551 98.8613 39.5551 99.0071 39.5301 99.0133Z" fill="#263238"/>
<path d="M38.6957 100.248C38.6427 100.285 38.3623 99.9379 37.8732 99.7362C37.384 99.5345 36.9385 99.5749 36.9385 99.5128C36.9385 99.4508 37.4089 99.3019 37.9635 99.5377C38.5181 99.7734 38.7486 100.226 38.6957 100.248Z" fill="#263238"/>
<path d="M41.0071 97.4744C40.9573 97.5148 40.5273 96.975 39.7889 96.5996C39.0505 96.2241 38.3682 96.1776 38.3713 96.1093C38.3745 96.0411 39.1035 95.9977 39.8886 96.4196C40.6738 96.8415 41.057 97.4527 41.0071 97.4744Z" fill="#263238"/>
<path d="M41.5023 94.5209C41.4712 94.5767 40.954 94.2944 40.2561 94.1951C39.5582 94.0958 38.9787 94.1951 38.9663 94.1455C38.9538 94.0958 39.5364 93.8693 40.2904 93.9841C41.0443 94.0989 41.5397 94.4805 41.5023 94.5209Z" fill="#263238"/>
<path d="M41.8141 91.6572C41.7767 91.71 41.2658 91.3284 40.5211 91.2849C39.7765 91.2415 39.2157 91.53 39.1846 91.4711C39.1534 91.4121 39.2905 91.3377 39.5304 91.2322C39.8476 91.0998 40.1916 91.0435 40.5347 91.0677C40.8778 91.092 41.2104 91.1961 41.5057 91.3718C41.7269 91.5114 41.8297 91.6324 41.8141 91.6572Z" fill="#263238"/>
<path d="M40.5955 90.7389C40.5756 90.6155 40.5841 90.4893 40.6204 90.3697C40.6905 90.0368 40.8249 89.7207 41.0161 89.4389C41.1404 89.2205 41.3329 89.0484 41.5644 88.9488C41.6438 88.9239 41.7289 88.9237 41.8085 88.9481C41.888 88.9725 41.9583 89.0203 42.0099 89.0853C42.1013 89.2188 42.1401 89.3811 42.119 89.5413C42.0619 89.8673 41.8925 90.1632 41.6401 90.3784C41.3877 90.5935 41.0679 90.7144 40.7357 90.7203C40.4076 90.7191 40.0874 90.6209 39.8155 90.438C39.5437 90.2552 39.3326 89.996 39.209 89.6934C39.178 89.6168 39.1638 89.5345 39.1676 89.4521C39.1714 89.3696 39.1929 89.289 39.2309 89.2156C39.2779 89.1461 39.3454 89.093 39.4241 89.0635C39.5029 89.0341 39.5888 89.0297 39.6701 89.0511C39.9047 89.13 40.1143 89.2692 40.2777 89.4545C40.5231 89.6924 40.7227 89.9732 40.8665 90.2828C40.9309 90.3896 40.9703 90.5094 40.9818 90.6334C40.7653 90.2402 40.4936 89.8798 40.1749 89.563C40.0245 89.4087 39.8383 89.2936 39.6328 89.228C39.5892 89.2147 39.5424 89.2161 39.4997 89.2317C39.4569 89.2474 39.4205 89.2766 39.396 89.3148C39.374 89.3636 39.3626 89.4165 39.3626 89.47C39.3626 89.5234 39.374 89.5763 39.396 89.6251C39.5103 89.8831 39.6969 90.1028 39.9334 90.258C40.1699 90.4132 40.4463 90.4972 40.7294 90.5C41.0091 90.493 41.2782 90.3924 41.4935 90.2146C41.7088 90.0368 41.8578 89.792 41.9165 89.5196C41.9307 89.4122 41.9088 89.3031 41.8542 89.2094C41.8266 89.1722 41.7881 89.1445 41.744 89.1301C41.6999 89.1156 41.6524 89.1151 41.608 89.1287C41.4137 89.2155 41.2499 89.3581 41.1376 89.5382C40.8867 89.9032 40.7031 90.3098 40.5955 90.7389Z" fill="#263238"/>
<path d="M35.4459 14.734L30.5825 13.0741L22.2826 16.1022L21.6501 17.2625L30.0092 16.3566L35.4459 14.734Z" fill="#39B06C"/>
<path d="M50.0422 50.1707C50.0422 50.1707 41.6083 50.9277 40.2126 52.3424C38.8168 53.7572 38.2653 57.1327 37.8977 59.3138C37.5301 61.4948 37.0098 87.5465 37.0098 87.5465L49.1605 87.8971L50.9333 59.6923C50.9333 59.6923 56.588 59.3479 57.5102 55.5566C58.4324 51.7654 56.1207 45.1943 56.1207 45.1943L49.7369 46.6152L50.0422 50.1707Z" fill="#263238"/>
<path d="M51.0302 54.9268C51.071 55.8255 51.0586 56.7257 50.9928 57.6229C50.9796 58.5216 50.913 59.4188 50.7934 60.3097C50.7506 59.4111 50.7631 58.5107 50.8308 57.6136C50.8421 56.7148 50.9087 55.8175 51.0302 54.9268Z" fill="#455A64"/>
<path d="M53.211 55.0012C53.2506 55.2614 53.2506 55.526 53.211 55.7862C53.071 57.0548 52.5361 58.2481 51.6812 59.1989C51.5144 59.4038 51.3169 59.5817 51.0955 59.7263C52.3298 58.4397 53.0775 56.7664 53.211 54.9919V55.0012Z" fill="#455A64"/>
<path d="M37.3805 71.8261C37.3767 71.7559 37.3767 71.6854 37.3805 71.6152V71.0226C37.3805 70.4859 37.3805 69.7413 37.3961 68.8322C37.4179 66.9707 37.3961 64.4267 37.5862 61.6034C37.7762 58.7801 38.2778 56.2392 39.0224 54.5297C39.1801 54.1432 39.3622 53.767 39.5677 53.4035C39.7119 53.1231 39.8765 52.8535 40.0599 52.5969C40.2064 52.3983 40.3216 52.237 40.4151 52.1129C40.4523 52.0542 40.4962 52.0001 40.546 51.9515C40.518 52.0165 40.4825 52.078 40.44 52.1346L40.1129 52.631C39.9405 52.8927 39.7855 53.1652 39.6487 53.4469C39.452 53.8113 39.2783 54.1874 39.1284 54.5731C38.4149 56.2795 37.932 58.8081 37.7482 61.6158C37.5643 64.4236 37.5612 66.9831 37.5114 68.8322C37.4896 69.763 37.4678 70.5045 37.4428 71.0226C37.4428 71.2677 37.421 71.4662 37.4117 71.6183C37.4107 71.6886 37.4002 71.7585 37.3805 71.8261Z" fill="#455A64"/>
<path d="M30.2772 47.6266C30.2772 47.6266 26.1522 49.7456 25.2207 50.5399C23.8214 51.8149 22.4893 53.1611 21.2296 54.5731L18.8337 59.2765C18.8337 59.2765 18.8929 61.8547 19.0581 62.4876C19.2232 63.1205 20.1672 63.2508 20.1672 62.5217C20.1672 61.7926 20.2326 60.0707 20.2326 60.0707L21.3636 58.414L20.7654 60.0056C20.7654 60.0056 20.5971 63.4183 21.2296 63.6479C21.8621 63.8775 22.1394 63.5921 22.1394 62.863C22.1394 62.1339 22.2079 60.1297 22.2079 60.1297L23.3233 58.2682L23.0927 60.4089C23.0927 60.4089 22.8279 63.0584 23.1581 63.4556C23.4884 63.8527 24.0928 63.1918 24.0928 63.1918C24.0928 63.1918 24.8935 64.7152 25.2238 63.257C25.554 61.7988 25.7565 60.2755 25.7565 60.2755L27.5542 55.7552L29.2834 52.9877L32.2089 51.9298C32.2089 51.9298 32.804 48.2223 30.2772 47.6266Z" fill="#FFBE9D"/>
<path d="M25.1208 58.0324C25.056 58.2859 24.9737 58.5347 24.8747 58.777C24.4616 59.9687 24.2132 61.2107 24.1363 62.469C24.1357 62.7317 24.1159 62.9941 24.0771 63.2539C24.0241 62.9958 24.0084 62.7315 24.0304 62.469C24.046 61.1929 24.2984 59.9307 24.775 58.746C24.8569 58.4935 24.9732 58.2534 25.1208 58.0324Z" fill="#EB996E"/>
<path d="M33.1217 14.7899C33.1217 14.7899 39.6644 14.3028 42.2067 15.1994C44.749 16.096 48.7494 17.5604 49.4099 20.9049C49.4099 20.9049 52.837 31.3386 53.1766 33.2931C53.5162 35.2477 54.8123 41.6078 54.8123 41.6078C54.8123 41.6078 56.8592 43.3204 56.8592 45.0206L44.4188 47.7911C44.4188 47.7911 34.9225 48.1014 31.7291 45.1819V43.1436C31.2486 42.6035 30.8868 41.9695 30.6666 41.2821L30.1744 39.3244C30.1744 39.3244 23.8716 34.1898 23.0522 32.561C22.2328 30.9321 17.1606 22.9432 17.1606 22.9432C17.1606 22.9432 17.4068 19.5305 20.5878 17.8892C23.7688 16.248 33.1217 14.7899 33.1217 14.7899Z" fill="#39B06C"/>
<path d="M23.0519 32.561C23.0519 32.561 23.0114 32.7223 22.9366 33.0077C22.3509 35.2633 19.6559 45.2967 18.1075 45.9824C16.3596 46.7549 12.6833 47.8191 10.1597 44.5335C7.63604 41.248 8.85423 26.3467 8.85423 26.3467L14.914 26.2381L15.1009 31.8784L17.1759 22.9432L23.6532 30.7181L23.0519 32.561Z" fill="#39B06C"/>
<path d="M35.2188 14.6565C35.2395 14.793 35.2479 14.9311 35.2437 15.0691C35.2437 15.3607 35.2437 15.7485 35.2655 16.2294C34.8698 17.6783 34.1501 20.0579 33.312 22.7447C32.7948 24.4076 32.3182 25.9526 31.9381 27.234L31.8539 27.5163L31.8072 27.2278C31.7246 26.7406 31.4979 26.289 31.1561 25.9309C30.8931 25.6525 30.5748 25.4317 30.2214 25.2825C29.9116 25.1608 29.5847 25.0875 29.2524 25.0653C29.3404 25.0541 29.4294 25.0541 29.5173 25.0653C29.768 25.0803 30.015 25.1337 30.2494 25.2236C30.6176 25.3676 30.951 25.5875 31.2277 25.8689C31.593 26.2382 31.8384 26.7085 31.9318 27.2185H31.801C32.1624 25.9309 32.6297 24.3828 33.1469 22.7199C33.9756 20.061 34.7047 17.7124 35.1658 16.2387C35.1658 15.7579 35.1814 15.37 35.1876 15.0784C35.187 14.9372 35.1974 14.7961 35.2188 14.6565Z" fill="#263238"/>
<path d="M33.0653 15.2552C33.031 15.3886 32.9841 15.5184 32.9251 15.643C32.816 15.9191 32.6727 16.2635 32.5045 16.6823C32.1493 17.5572 31.6726 18.7734 31.171 20.1261L29.8967 23.5978L29.5011 24.6495C29.4598 24.7802 29.4044 24.9061 29.3359 25.0249C29.3584 24.8895 29.3939 24.7565 29.4419 24.6278C29.5353 24.3455 29.6506 23.9887 29.7877 23.5606C30.0993 22.6639 30.5136 21.426 31.0183 20.0703C31.5231 18.7145 32.0153 17.5045 32.3985 16.6358C32.5917 16.2046 32.7506 15.854 32.869 15.6182C32.9192 15.4896 32.9851 15.3677 33.0653 15.2552Z" fill="#263238"/>
<path d="M22.3886 20.7435C22.4042 20.7435 22.2982 20.9017 22.2141 21.2089C22.1023 21.6436 22.1109 22.1003 22.239 22.5305C22.4417 23.1662 22.8042 23.7397 23.2921 24.1966C23.8857 24.7674 24.5186 25.2961 25.1864 25.7789C26.1998 26.5236 27.2708 27.1875 28.3892 27.7644L28.2957 27.8327C28.2035 27.1989 28.2988 26.552 28.5699 25.9712C28.6444 25.8127 28.7331 25.6611 28.8347 25.5182C28.869 25.4657 28.9098 25.4178 28.9562 25.3755C28.9718 25.3755 28.8129 25.5896 28.6447 25.996C28.4058 26.5717 28.3314 27.202 28.4297 27.8172L28.4515 27.9413L28.3362 27.8854C27.1999 27.3252 26.1156 26.6659 25.096 25.9154C24.4214 25.4273 23.7841 24.8901 23.1893 24.3083C22.6916 23.8291 22.3276 23.2293 22.1331 22.5678C22.0129 22.1203 22.0226 21.648 22.1612 21.2058C22.2013 21.087 22.2535 20.9727 22.3169 20.8645C22.3574 20.7776 22.3824 20.7404 22.3886 20.7435Z" fill="#263238"/>
<path d="M35.5893 37.6491C35.5405 37.6439 35.4925 37.6335 35.446 37.618C35.3122 37.5784 35.1827 37.5254 35.0597 37.4598C34.6061 37.2163 34.2165 36.8698 33.9225 36.4484C33.49 35.8238 33.1735 35.1272 32.9878 34.3914C32.7781 33.5019 32.5064 32.628 32.1746 31.776C31.7857 30.9496 31.3391 30.1514 30.8381 29.3871C30.4286 28.7551 30.0612 28.097 29.7383 27.417C29.5252 26.9548 29.3663 26.4697 29.2647 25.9713C29.2398 25.8358 29.2221 25.6991 29.2117 25.5617C29.2042 25.5145 29.2042 25.4663 29.2117 25.419C29.262 25.5966 29.3026 25.7769 29.3332 25.9589C29.4556 26.4461 29.6289 26.9193 29.8504 27.3705C30.1839 28.0386 30.5574 28.6861 30.9689 29.3095C31.4841 30.0739 31.9393 30.8768 32.3304 31.7109C32.6641 32.57 32.9338 33.4525 33.1374 34.3511C33.3127 35.0736 33.6109 35.7609 34.0191 36.3832C34.2978 36.7988 34.6647 37.1483 35.0939 37.4071C35.3993 37.5839 35.5955 37.6491 35.5893 37.6491Z" fill="#263238"/>
<path d="M44.1538 37.981C43.9993 38.049 43.8386 38.102 43.674 38.1393C43.3624 38.2323 42.9013 38.3502 42.3343 38.4837C40.8504 38.8232 39.3469 39.0709 37.8323 39.2251C36.317 39.3769 34.7936 39.4339 33.2711 39.3958C32.6854 39.3803 32.2149 39.3555 31.8878 39.3275C31.7182 39.3222 31.5493 39.3025 31.3831 39.2686C31.552 39.2541 31.7219 39.2541 31.8909 39.2686C32.218 39.2686 32.6885 39.2872 33.2711 39.2872C34.788 39.2926 36.3042 39.2201 37.8136 39.07C39.3229 38.9149 40.8234 38.684 42.3094 38.3782C42.8795 38.2603 43.3406 38.1579 43.6584 38.0834C43.8208 38.0374 43.9864 38.0031 44.1538 37.981Z" fill="#263238"/>
<path d="M45.7206 43.2336C45.5727 43.2704 45.4212 43.2912 45.2689 43.2956C44.9791 43.3267 44.5554 43.3608 44.0226 43.3918C42.9758 43.4539 41.5302 43.4973 39.9288 43.4601C38.3274 43.4228 36.8849 43.3174 35.8412 43.2057C35.3209 43.1529 34.9065 43.1002 34.6105 43.0567C34.4586 43.0451 34.3083 43.0181 34.1619 42.9761C34.3137 42.9678 34.4661 42.9741 34.6167 42.9947L35.863 43.094C36.9036 43.1746 38.3554 43.2615 39.9412 43.2987C41.5271 43.336 42.982 43.2987 44.0289 43.277L45.2751 43.2336C45.4234 43.222 45.5723 43.222 45.7206 43.2336Z" fill="#263238"/>
<path d="M38.6204 43.5965C38.394 43.4945 38.1929 43.3441 38.0315 43.156C37.6117 42.7257 37.3132 42.1929 37.1661 41.6112C37.0189 41.0295 37.0284 40.4194 37.1934 39.8425C37.2476 39.6013 37.3539 39.3747 37.505 39.1786C37.5299 39.1786 37.4053 39.4392 37.3087 39.8704C37.1778 40.4308 37.1831 41.0141 37.324 41.572C37.4648 42.1299 37.7373 42.6463 38.1188 43.0784C38.4085 43.4135 38.6359 43.5748 38.6204 43.5965Z" fill="#263238"/>
<path d="M30.1742 39.3244C30.1742 39.3244 30.1212 39.2996 30.0277 39.2344L29.6289 38.9428L29.0058 38.4774C28.7628 38.2819 28.4949 38.0648 28.1958 37.829C26.6447 36.5644 25.1966 35.1795 23.8651 33.6871C22.5299 32.1949 21.3523 30.57 20.3508 28.8379C19.9707 28.1709 19.6996 27.6125 19.5189 27.2246C19.4379 27.0416 19.3756 26.8927 19.3226 26.7717C19.2971 26.7202 19.2772 26.6661 19.2634 26.6104C19.3007 26.6553 19.3311 26.7055 19.3538 26.7593L19.575 27.1967C19.7713 27.5783 20.0579 28.1275 20.4505 28.7821C21.4755 30.4878 22.6595 32.0937 23.9866 33.5786C25.3136 35.0648 26.744 36.4561 28.2674 37.7421L29.0588 38.406L29.6819 38.8931C29.8377 39.0203 29.9623 39.1258 30.0651 39.2034C30.1049 39.2405 30.1414 39.281 30.1742 39.3244Z" fill="#263238"/>
<path d="M16.5095 44.0557C16.5095 44.0557 16.5624 43.8075 16.6466 43.3607C16.7635 42.7292 16.824 42.0886 16.8273 41.4465C16.8278 40.4939 16.7454 39.5431 16.5811 38.6046C16.4036 37.5436 16.1325 36.3894 15.8241 35.1919C15.491 34.0651 15.238 32.9164 15.067 31.7543C14.9361 30.6777 14.9143 29.7036 14.8925 28.8876C14.8707 28.0716 14.8925 27.4108 14.8925 26.9547C14.8925 26.7407 14.8925 26.5669 14.8925 26.4273C14.8892 26.3659 14.8945 26.3043 14.9081 26.2443C14.922 26.3043 14.9283 26.3658 14.9268 26.4273C14.9268 26.5669 14.9268 26.7376 14.9268 26.9547C14.9424 27.4325 14.961 28.0872 14.986 28.8845C15.0109 29.6818 15.0545 30.6715 15.1916 31.7357C15.3724 32.8889 15.6294 34.029 15.9611 35.1484C16.2727 36.3553 16.5344 37.5156 16.7058 38.586C16.8644 39.5331 16.9363 40.4926 16.9207 41.4527C16.9067 42.1 16.8284 42.7443 16.6871 43.3763C16.6434 43.6027 16.5811 43.7703 16.55 43.8851C16.545 43.9436 16.5314 44.0011 16.5095 44.0557Z" fill="#263238"/>
<path d="M14.6402 30.6281C14.6402 30.6281 14.5685 30.6777 14.4314 30.7398C14.2374 30.8243 14.0375 30.8948 13.8333 30.9507C13.1586 31.1458 12.4573 31.2337 11.7552 31.2113C11.0539 31.1872 10.3605 31.0564 9.69889 30.8235C9.49919 30.753 9.30453 30.6691 9.11628 30.5722C8.98231 30.504 8.91065 30.4605 8.91688 30.4512C8.92311 30.4419 9.22843 30.5598 9.73627 30.7149C11.0595 31.1159 12.4661 31.1587 13.8114 30.839C14.3193 30.718 14.6277 30.6033 14.6402 30.6281Z" fill="#263238"/>
<path d="M41.1939 28.7883L42.9417 42.8922L26.7407 48.2999L29.4575 54.0922C29.4575 54.0922 50.1013 51.2566 50.7992 49.7487C51.3755 48.5077 51.8647 45.4052 51.8647 45.4052L51.6248 27.8172C51.6248 27.8172 47.9858 16.338 44.9793 17.3928C41.9727 18.4477 40.5957 23.9608 41.1939 28.7883Z" fill="#39B06C"/>
<path d="M47.0854 46.1375C46.9369 45.6527 46.691 45.203 46.3626 44.8158C45.983 44.376 45.5258 44.009 45.0135 43.733C44.3587 43.3601 43.6307 43.1326 42.8794 43.066H42.9043C41.3154 43.5376 39.4367 44.0836 37.4801 44.8251C34.5359 45.8645 31.8191 46.6463 29.8812 47.2668C28.9092 47.577 28.1272 47.8345 27.585 48.0176L26.9619 48.2286C26.8907 48.2573 26.8165 48.2781 26.7407 48.2906C26.8078 48.2543 26.8776 48.2231 26.9495 48.1975C27.0897 48.1417 27.2953 48.0579 27.5726 47.9586C28.1085 47.757 28.8874 47.4809 29.8563 47.1582C31.7911 46.4974 34.4985 45.7 37.4334 44.6607C39.3931 43.9192 41.2842 43.3794 42.8732 42.9202H42.8981C43.6682 42.9945 44.4126 43.236 45.079 43.6276C45.5967 43.919 46.0561 44.3029 46.4342 44.76C46.6783 45.0521 46.8681 45.3851 46.995 45.7435C47.0301 45.837 47.0562 45.9336 47.0729 46.032C47.0817 46.0665 47.0859 46.1019 47.0854 46.1375Z" fill="#263238"/>
<path d="M41.0914 25.4221C41.1382 25.4221 41.5743 29.3467 42.0697 34.2021C42.5651 39.0576 42.9296 42.9915 42.8829 42.9977C42.8361 43.0039 42.4031 39.0731 41.9077 34.2177C41.4123 29.3622 41.0478 25.4252 41.0914 25.4221Z" fill="#263238"/>
<path d="M50.7686 25.6579C50.797 25.7337 50.82 25.8115 50.8371 25.8906L51.0084 26.5669C51.0832 26.8617 51.1705 27.2216 51.2546 27.6435C51.3387 28.0654 51.4509 28.5432 51.5381 29.0768C51.7375 30.141 51.9244 31.4192 52.0802 32.8433C52.236 34.2673 52.3294 35.8403 52.3575 37.497C52.3855 39.1538 52.317 40.7267 52.2111 42.1508C52.1051 43.5748 51.9462 44.8624 51.778 45.9327C51.7032 46.4694 51.6097 46.9503 51.535 47.3723C51.4602 47.7942 51.3854 48.1603 51.32 48.455C51.2546 48.7498 51.2047 48.9638 51.1673 49.1345C51.1528 49.2149 51.1309 49.2938 51.1019 49.3703C51.1077 49.2889 51.1191 49.208 51.1362 49.1283C51.1642 48.9576 51.2047 48.7281 51.2577 48.4426C51.3107 48.1572 51.3792 47.7818 51.4446 47.3568C51.51 46.9317 51.5973 46.4508 51.6627 45.9141C51.8185 44.8437 51.9556 43.5655 52.0646 42.1415C52.1737 40.7174 52.2142 39.1445 52.1955 37.4877C52.1768 35.831 52.0677 34.2735 51.9306 32.8495C51.7936 31.4254 51.6191 30.1534 51.4259 29.0893C51.3449 28.5556 51.2421 28.0778 51.1642 27.6528C51.0863 27.2278 51.0116 26.871 50.9461 26.5731C50.8807 26.2753 50.8402 26.0643 50.8059 25.8906C50.7855 25.8145 50.773 25.7365 50.7686 25.6579Z" fill="#263238"/>
<path d="M33.2677 53.4717C33.2365 53.4717 33.2988 53.0839 33.2895 52.4572C33.2849 52.092 33.2505 51.7278 33.1867 51.3682C33.0322 50.4904 32.7153 49.6487 32.252 48.8862C32.0619 48.5729 31.8484 48.2742 31.6133 47.9927C31.2114 47.5149 30.9123 47.2636 30.931 47.2419C30.9497 47.2202 31.0182 47.2884 31.1553 47.4001C31.3511 47.5576 31.5334 47.7309 31.7005 47.9182C31.9537 48.1939 32.181 48.4919 32.3797 48.8087C32.8684 49.5842 33.1929 50.4509 33.3331 51.3558C33.3886 51.7244 33.4115 52.0971 33.4016 52.4696C33.399 52.7204 33.3751 52.9705 33.33 53.2173C33.3213 53.3046 33.3004 53.3903 33.2677 53.4717Z" fill="#263238"/>
<path d="M45.958 18.5873C45.958 18.6183 45.5654 18.6338 44.9548 18.7921C44.5983 18.8846 44.2511 19.0092 43.9173 19.1644C43.51 19.3577 43.1229 19.5905 42.7614 19.8593C42.406 20.1374 42.0783 20.4491 41.7831 20.7901C41.5488 21.0697 41.3402 21.3698 41.16 21.6867C40.8485 22.2296 40.7238 22.6174 40.6958 22.5957C40.7022 22.5027 40.7243 22.4115 40.7612 22.3258C40.7916 22.2196 40.8302 22.1159 40.8765 22.0156C40.9285 21.8811 40.9899 21.7505 41.0603 21.6246C41.2353 21.2939 41.4441 20.982 41.6834 20.6939C41.9807 20.3401 42.3149 20.0187 42.6804 19.7352C43.0508 19.4598 43.4498 19.2248 43.8706 19.0341C44.2148 18.8816 44.574 18.7652 44.9423 18.6866C45.0831 18.6548 45.2256 18.6309 45.3691 18.6152C45.4772 18.5967 45.5866 18.5873 45.6963 18.5873C45.783 18.5743 45.8712 18.5743 45.958 18.5873Z" fill="#263238"/>
<path d="M38.9851 46.4198C38.8689 45.9529 38.8581 45.4662 38.9535 44.9946C39.0488 44.5231 39.248 44.0784 39.5365 43.6927C39.5802 43.7175 39.2624 44.2697 39.1128 45.0268C38.9633 45.7838 39.0225 46.4136 38.9851 46.4198Z" fill="#263238"/>
<path d="M48.1515 20.5574H48.0829L47.8898 20.5264C47.7246 20.4954 47.4816 20.4613 47.1825 20.4333C46.4006 20.3535 45.6118 20.3681 44.8334 20.4768C44.0542 20.5926 43.2917 20.8009 42.5621 21.0973C42.2817 21.209 42.0605 21.3082 41.9079 21.3827L41.7334 21.4665C41.6929 21.4851 41.6711 21.4944 41.668 21.4913C41.6856 21.4758 41.7055 21.4632 41.7272 21.4541L41.8954 21.361C42.106 21.2466 42.3223 21.1431 42.5435 21.0507C44.0082 20.4374 45.6074 20.2119 47.1856 20.3961C47.4972 20.4333 47.7309 20.4737 47.896 20.5109L48.086 20.5543C48.1079 20.5518 48.13 20.5528 48.1515 20.5574Z" fill="#FAFAFA"/>
<path d="M50.8588 26.508H50.7623L50.4881 26.4677C50.2513 26.4274 49.9024 26.3777 49.4755 26.325C47.2407 26.0518 44.9784 26.0935 42.7553 26.4491C42.3284 26.5173 41.9857 26.5794 41.7489 26.6259L41.4748 26.6786L41.3782 26.6942C41.4081 26.6812 41.4395 26.6718 41.4716 26.6662L41.7427 26.6011C41.9795 26.5452 42.3222 26.477 42.7459 26.4025C43.8583 26.2169 44.983 26.1132 46.1107 26.0923C47.2377 26.0711 48.3646 26.1354 49.4818 26.2846C49.9086 26.3405 50.2544 26.3994 50.4912 26.446L50.7654 26.4987C50.7968 26.4975 50.8283 26.5007 50.8588 26.508Z" fill="#FAFAFA"/>
<path d="M51.952 31.9622C51.9179 31.9664 51.8833 31.9664 51.8492 31.9622L51.5563 31.925C51.304 31.8878 50.9332 31.8412 50.4846 31.7916C49.3022 31.6612 48.113 31.6021 46.9235 31.6147C45.7335 31.629 44.5454 31.7139 43.3655 31.8691C42.9137 31.9281 42.5492 31.9839 42.2969 32.0274L42.0071 32.0739C41.973 32.078 41.9384 32.078 41.9043 32.0739L42.004 32.0491L42.2937 31.9932C42.543 31.9405 42.9169 31.8816 43.3593 31.8133C44.5402 31.6458 45.7307 31.5546 46.9235 31.5403C48.1146 31.5278 49.3052 31.5931 50.4877 31.7357C50.9426 31.7916 51.3102 31.8443 51.5594 31.8909L51.8492 31.9405L51.952 31.9622Z" fill="#FAFAFA"/>
<path d="M52.27 36.1692H52.1672L51.8743 36.1506C51.6188 36.1351 51.2512 36.1134 50.7932 36.0947C49.8803 36.0544 48.6123 36.0358 47.2259 36.0947C45.8395 36.1537 44.5777 36.3119 43.6741 36.4453C43.2224 36.5105 42.8579 36.5694 42.6055 36.6129L42.3158 36.6625H42.2161C42.2477 36.6488 42.2814 36.6404 42.3158 36.6377L42.6024 36.5787C42.8516 36.526 43.2255 36.4608 43.6679 36.3895C46.0242 36.0155 48.4139 35.8928 50.7963 36.0234C51.2512 36.0482 51.6219 36.0761 51.8743 36.101L52.1672 36.132C52.203 36.1394 52.2377 36.152 52.27 36.1692Z" fill="#FAFAFA"/>
<path d="M52.0924 41.7257C52.0605 41.7238 52.0291 41.7175 51.9989 41.7071L51.731 41.645C51.5035 41.5861 51.1671 41.5116 50.7527 41.4248C49.6723 41.2014 48.5785 41.0481 47.4782 40.9656C46.377 40.8862 45.2717 40.8789 44.1695 40.9439C43.7458 40.9687 43.4031 40.9966 43.1694 41.0183L42.8952 41.0431C42.8642 41.0478 42.8327 41.0478 42.8018 41.0431L42.8952 41.0276L43.1663 40.9904C43.4 40.9594 43.7427 40.9252 44.1664 40.8942C46.3766 40.7342 48.5984 40.8951 50.762 41.372C51.1764 41.462 51.5098 41.5457 51.7372 41.6109L52.002 41.6854L52.0924 41.7257Z" fill="#FAFAFA"/>
<path d="M50.5121 49.9504C50.5121 49.9504 50.5122 49.9132 50.4748 49.8449C50.4374 49.7767 50.4156 49.6557 50.3813 49.5347C50.3366 49.3724 50.2825 49.2129 50.2193 49.0569C50.1445 48.8739 50.076 48.6598 49.9669 48.4364C49.8579 48.1894 49.7363 47.9481 49.6024 47.7135C49.4715 47.4529 49.2908 47.1954 49.1195 46.9193C48.7129 46.3363 48.2518 45.793 47.7424 45.2967C47.2257 44.8077 46.6622 44.3702 46.06 43.9905C45.7765 43.8261 45.5117 43.6617 45.2437 43.5407C45.0042 43.416 44.7577 43.3051 44.5053 43.2087C44.2779 43.1063 44.0598 43.0443 43.8822 42.9791C43.7046 42.914 43.5333 42.8705 43.3962 42.8364L43.0846 42.7557L42.9756 42.7247C43.0136 42.7264 43.0513 42.7327 43.0878 42.7433L43.3993 42.8147C43.5658 42.8486 43.7301 42.8921 43.8916 42.945C44.0785 43.007 44.2997 43.066 44.5147 43.1653C44.7695 43.2606 45.0191 43.3694 45.2624 43.491C45.5304 43.612 45.7983 43.7765 46.0849 43.9409C46.6924 44.3211 47.2611 44.7596 47.7829 45.2501C48.2935 45.7499 48.7547 46.2974 49.16 46.8852C49.3376 47.1644 49.512 47.425 49.6429 47.6856C49.7762 47.9227 49.8959 48.1671 50.0012 48.4178C50.1102 48.6412 50.1757 48.8583 50.2473 49.0383C50.3083 49.196 50.3582 49.3577 50.3969 49.5223L50.481 49.8325C50.4935 49.9132 50.5121 49.9504 50.5121 49.9504Z" fill="#FAFAFA"/>
<path d="M43.1036 51.8988C43.0958 51.8715 43.0905 51.8434 43.088 51.8151C43.088 51.7406 43.0724 51.6599 43.0631 51.5731C43.0413 51.359 43.0008 51.055 42.9385 50.6796C42.7791 49.7007 42.5245 48.7395 42.1783 47.8098C41.8265 46.8812 41.3873 45.9878 40.8666 45.1416C40.6641 44.8314 40.4928 44.5614 40.3713 44.3877C40.3183 44.3132 40.2716 44.2481 40.2311 44.186C40.2137 44.1623 40.1981 44.1375 40.1843 44.1116C40.2053 44.1313 40.2241 44.1531 40.2404 44.1767L40.39 44.3722C40.5208 44.5428 40.7015 44.7972 40.904 45.1168C41.9804 46.8025 42.6894 48.6945 42.9852 50.6703C43.0413 51.0488 43.0756 51.3559 43.088 51.57C43.088 51.6599 43.088 51.7406 43.1036 51.8151C43.1077 51.8428 43.1077 51.8711 43.1036 51.8988Z" fill="#FAFAFA"/>
<path d="M37.5242 52.8513V52.7737V52.5472C37.5242 52.3517 37.5429 52.0694 37.5242 51.7188C37.4906 50.8091 37.3664 49.905 37.1534 49.0197C36.9442 48.1322 36.6446 47.2684 36.2593 46.4415C36.1128 46.1313 35.9788 45.8737 35.8823 45.7031L35.7701 45.5076C35.7566 45.4849 35.7451 45.461 35.7358 45.4363C35.754 45.4561 35.7697 45.4779 35.7826 45.5014L35.9041 45.6907C36.0492 45.928 36.1823 46.1723 36.3029 46.4229C36.7004 47.2478 37.0064 48.1133 37.2157 49.0042C37.433 49.8934 37.5511 50.8038 37.5678 51.7188C37.5746 51.9962 37.5662 52.2738 37.5429 52.5503C37.5429 52.631 37.5429 52.7054 37.5211 52.7737C37.5254 52.7993 37.5264 52.8254 37.5242 52.8513Z" fill="#FAFAFA"/>
<path d="M49.6778 47.4964C48.7465 47.9772 47.7897 48.407 46.8114 48.7839C44.4546 49.6989 42.0501 50.4871 39.6082 51.1449C36.745 51.9268 34.1217 52.5038 32.2057 52.842C30.2896 53.1802 29.0901 53.3043 29.0901 53.3043L29.3082 53.2671L29.9313 53.1802C30.4703 53.0995 31.2461 52.9785 32.1994 52.7986C34.1124 52.448 36.7326 51.8678 39.5927 51.0829C42.0353 50.4248 44.4426 49.643 46.8052 48.7405C47.2601 48.5637 47.6682 48.4054 48.0203 48.2472C48.3723 48.089 48.6839 47.9711 48.9269 47.8501L49.4908 47.5864L49.6778 47.4964Z" fill="#FAFAFA"/>
<path d="M46.9265 19.0341C46.9265 19.0341 47.4001 20.5853 47.9796 23.1139C48.2911 24.3828 48.5716 25.9061 48.8769 27.597C49.1822 29.2878 49.4377 31.1648 49.6558 33.1411C49.8739 35.1174 49.9954 37.0037 50.067 38.7256C50.1387 40.4475 50.1325 41.9957 50.067 43.2987C50.067 43.609 50.0483 43.9192 50.0328 44.2295C50.0172 44.5397 49.9923 44.7941 49.9767 45.0547C49.9455 45.5697 49.9082 46.0134 49.8645 46.3764C49.8209 46.7394 49.796 46.9969 49.7742 47.2079C49.7524 47.4188 49.7368 47.4964 49.7368 47.4964C49.7368 47.4964 49.7368 47.3971 49.7617 47.2079C49.7866 47.0186 49.8053 46.7239 49.8396 46.3733C49.8739 46.0227 49.9113 45.5666 49.9393 45.0516C49.9549 44.7941 49.9736 44.518 49.9923 44.2264C50.011 43.9347 50.011 43.6245 50.0234 43.2956C50.0764 41.9957 50.0546 40.4475 50.0047 38.7287C49.9549 37.01 49.796 35.1236 49.5872 33.1442C49.3785 31.1649 49.0981 29.3002 48.8146 27.6032C48.531 25.9061 48.2226 24.389 47.9297 23.1201C47.7958 22.4996 47.6556 21.9132 47.5309 21.4106C47.4063 20.908 47.3035 20.4799 47.2194 20.1262C47.1353 19.7725 47.0605 19.5057 47.0075 19.3164C46.9546 19.1272 46.9265 19.0341 46.9265 19.0341Z" fill="#FAFAFA"/>
<path d="M44.7801 43.7578C44.7277 43.7897 44.6736 43.8187 44.6181 43.8447L44.1414 44.0867C43.7239 44.2883 43.1164 44.5738 42.3562 44.9026C40.8389 45.5697 38.7079 46.4166 36.3431 47.307C33.9784 48.1975 31.8193 48.9576 30.2616 49.5005L28.3922 50.121L27.8844 50.2885L27.7068 50.3413L27.8813 50.2761L28.3829 50.0962L30.2335 49.4447C31.7913 48.8924 33.9535 48.1199 36.3213 47.2326C38.6892 46.3453 40.8202 45.5045 42.3406 44.8499C43.1039 44.5241 43.7115 44.248 44.1321 44.0525L44.615 43.8229L44.7801 43.7578Z" fill="#FAFAFA"/>
<path d="M42.7426 19.7724C42.7613 19.7724 43.4529 25.2172 44.3004 31.9373C45.1478 38.6573 45.799 44.1114 45.7803 44.1114C45.7616 44.1114 45.0699 38.6697 44.2225 31.9466C43.375 25.2235 42.7239 19.7755 42.7426 19.7724Z" fill="#FAFAFA"/>
<path d="M31.4889 53.8099C31.4808 53.7888 31.4746 53.767 31.4702 53.7448C31.4702 53.6827 31.4453 53.6207 31.4328 53.5524C31.4017 53.3849 31.3518 53.1429 31.2833 52.8482C30.9325 51.3024 30.354 49.8168 29.5666 48.4395C29.4171 48.1727 29.2924 47.9617 29.2021 47.819L29.0993 47.6515C29.0864 47.6321 29.0759 47.6113 29.0681 47.5894C29.0849 47.6051 29.0996 47.6228 29.1117 47.6422C29.146 47.6949 29.1834 47.7477 29.2239 47.8035C29.3205 47.9431 29.4513 48.1541 29.6071 48.424C30.416 49.7983 30.9978 51.2931 31.33 52.8513C31.3923 53.1615 31.436 53.3942 31.4578 53.5617L31.4858 53.7572C31.4885 53.7747 31.4895 53.7923 31.4889 53.8099Z" fill="#FAFAFA"/>
<path d="M32.33 31.987H32.2241H31.9126C31.654 31.987 31.2894 32.0087 30.8128 32.0149C29.8781 32.0149 28.5976 31.9994 27.1831 31.897C25.7687 31.7946 24.4913 31.6333 23.5722 31.4875C23.1142 31.4161 22.7434 31.3541 22.488 31.3044L22.1951 31.2486L22.0923 31.2238C22.1264 31.2189 22.161 31.2189 22.1951 31.2238L22.4911 31.2672L23.5815 31.4316C24.5162 31.5619 25.7624 31.7171 27.1862 31.8226C28.6101 31.928 29.8843 31.9529 30.8128 31.956H31.9126H32.3176L32.33 31.987Z" fill="#FAFAFA"/>
<path d="M41.5929 30.6932L41.5057 30.7242L41.2502 30.7956C41.029 30.8576 40.7049 30.9383 40.3155 31.0314C39.5148 31.2206 38.3994 31.4471 37.1532 31.6239C35.907 31.8008 34.7729 31.8939 33.9504 31.9342C33.5392 31.9559 33.2058 31.9652 32.9752 31.9683H32.6169H32.7104L32.9752 31.9528L33.9473 31.897C34.7698 31.8442 35.9007 31.7418 37.1439 31.565C38.387 31.3882 39.5023 31.171 40.3062 30.9941L41.2564 30.777L41.515 30.718L41.5929 30.6932Z" fill="#FAFAFA"/>
<path d="M30.1216 28.5556C30.0854 28.5603 30.0488 28.5603 30.0126 28.5556H29.701C29.4268 28.5556 29.0312 28.5556 28.5451 28.5556C27.2741 28.5131 26.0079 28.3783 24.7566 28.1523C23.5053 27.9301 22.2715 27.619 21.0647 27.2216C20.6036 27.0633 20.2328 26.9299 19.9805 26.8275L19.6876 26.7096L19.5879 26.6631L19.6938 26.6972L19.9898 26.8027C20.2453 26.8989 20.6129 27.0261 21.0802 27.1781C23.5002 27.9613 26.0155 28.4143 28.5576 28.5246C29.0436 28.5463 29.4393 28.5556 29.7135 28.5556H30.025H30.1216Z" fill="#FAFAFA"/>
<path d="M40.9635 25.9836C40.9635 25.9836 38.7296 26.5451 35.9786 27.2029C33.2275 27.8606 30.9936 28.3787 30.9718 28.3601C30.95 28.3415 33.2026 27.7955 35.9567 27.1408C38.7109 26.4862 40.9572 25.965 40.9635 25.9836Z" fill="#FAFAFA"/>
<path d="M40.8204 21.4262H40.7488L40.5431 21.451L39.7829 21.5441C39.1442 21.6247 38.2625 21.7581 37.2905 21.9567C36.3184 22.1552 35.4648 22.3848 34.8448 22.5772L34.1095 22.7944L33.9101 22.8502C33.8879 22.8586 33.865 22.8649 33.8416 22.8688C33.8416 22.8688 33.8634 22.8688 33.907 22.8378L34.1033 22.7695C34.2746 22.7075 34.5207 22.6268 34.8323 22.5337C35.4554 22.3414 36.3122 22.1087 37.278 21.9133C38.2438 21.7178 39.1287 21.603 39.7705 21.5161C40.082 21.482 40.3531 21.4572 40.5338 21.4448H40.7425C40.7671 21.4337 40.7935 21.4274 40.8204 21.4262Z" fill="#FAFAFA"/>
<path d="M44.1505 18.6276C44.1186 18.6257 44.0872 18.6195 44.0571 18.609L43.7953 18.5376C43.5679 18.4725 43.2377 18.3856 42.8295 18.2832C42.0101 18.0785 40.8729 17.8303 39.5987 17.6441C38.3244 17.458 37.1623 17.3711 36.318 17.3339C35.8974 17.3153 35.5547 17.3059 35.321 17.3028H35.0468C35.0159 17.3075 34.9843 17.3075 34.9534 17.3028H35.0468H35.321C35.5547 17.3028 35.8974 17.3028 36.3211 17.3028C37.4212 17.3415 38.5184 17.4388 39.608 17.5945C40.6964 17.7553 41.775 17.9759 42.8389 18.2553C43.2501 18.3639 43.5773 18.457 43.8016 18.5283L44.0602 18.6121L44.1505 18.6276Z" fill="#FAFAFA"/>
<path d="M32.9473 22.9494C32.9473 22.9494 32.8226 22.8315 32.6108 22.664C32.0475 22.2223 31.3525 21.98 30.6355 21.9753C30.3614 21.9753 30.1931 22.0001 30.1931 21.9753C30.2299 21.96 30.2687 21.9506 30.3084 21.9473C30.4114 21.9299 30.5155 21.9195 30.6199 21.9163C30.9823 21.9079 31.3433 21.9647 31.6855 22.0838C32.0269 22.2024 32.3437 22.3822 32.6201 22.6144C32.7039 22.6836 32.782 22.7594 32.8538 22.8409C32.8915 22.8709 32.9233 22.9077 32.9473 22.9494Z" fill="#FAFAFA"/>
<path d="M34.3121 19.3101C34.3121 19.3101 34.2311 19.1643 34.0816 18.9502C33.8871 18.6689 33.6483 18.4206 33.3743 18.215C33.0989 18.0113 32.7929 17.8522 32.4677 17.7434C32.2153 17.6627 32.0533 17.6379 32.0564 17.6255C32.0596 17.6131 32.0969 17.6255 32.1717 17.6255C32.2772 17.6402 32.3814 17.663 32.4833 17.6937C33.1628 17.8955 33.7453 18.3366 34.1221 18.9347C34.1806 19.0224 34.2316 19.1148 34.2748 19.2109C34.2919 19.242 34.3045 19.2754 34.3121 19.3101Z" fill="#FAFAFA"/>
<path d="M33.9531 15.0287C33.9718 15.0287 33.2645 17.2718 32.3766 20.0269C31.4887 22.7819 30.7534 25.0095 30.7378 24.9908C30.7222 24.9722 31.4263 22.7508 32.3143 19.9927C33.2022 17.2346 33.9375 15.0225 33.9531 15.0287Z" fill="#FAFAFA"/>
<path d="M25.3578 25.8316C25.3578 25.8316 25.3578 25.7943 25.3328 25.7292C25.317 25.6339 25.3107 25.5372 25.3141 25.4406C25.3192 25.1202 25.3946 24.8047 25.5351 24.5164C25.6756 24.228 25.8777 23.9738 26.1273 23.7715C26.202 23.7103 26.2823 23.6563 26.3672 23.6102C26.397 23.5901 26.4295 23.5744 26.4638 23.5636C26.4638 23.5636 26.3392 23.6474 26.1522 23.8056C25.9174 24.0123 25.7257 24.2631 25.5883 24.5437C25.4509 24.8243 25.3705 25.1291 25.3515 25.4406C25.3453 25.6826 25.3702 25.8285 25.3578 25.8316Z" fill="#FAFAFA"/>
<path d="M22.7471 23.6289C22.7471 23.6289 22.7471 23.5917 22.7159 23.5203C22.6934 23.4185 22.683 23.3144 22.6848 23.2101C22.6878 22.8621 22.7781 22.5204 22.9473 22.2159C23.1165 21.9115 23.3593 21.6539 23.6537 21.4665C23.7422 21.4098 23.8361 21.362 23.9341 21.3238C24.0058 21.2989 24.0432 21.2865 24.0463 21.2927C24.0494 21.2989 23.8936 21.3579 23.6786 21.5037C23.3996 21.6968 23.1692 21.9517 23.0057 22.2483C22.8404 22.5433 22.7465 22.8726 22.7315 23.2101C22.7222 23.4676 22.7595 23.6289 22.7471 23.6289Z" fill="#FAFAFA"/>
<path d="M28.498 26.3466C28.498 26.3466 28.47 26.3466 28.4201 26.3032L28.2021 26.1698L27.4138 25.6641C26.7502 25.2328 25.8311 24.6434 24.8279 23.967C24.3511 23.654 23.9112 23.2888 23.5162 22.878C23.1928 22.5414 22.9313 22.1507 22.7436 21.7239C22.6157 21.437 22.5367 21.1308 22.5099 20.818C22.4977 20.7035 22.4977 20.5881 22.5099 20.4736C22.5099 20.4736 22.5099 20.5977 22.5348 20.8149C22.5728 21.1224 22.6568 21.4225 22.7841 21.7053C22.9759 22.1241 23.2383 22.5071 23.5599 22.8377C23.9546 23.2426 24.3923 23.6036 24.8653 23.9143L27.4387 25.6268L28.2176 26.1481L28.4264 26.2939L28.498 26.3466Z" fill="#FAFAFA"/>
<path d="M33.4362 36.2808C33.4135 36.2845 33.3903 36.2845 33.3676 36.2808H33.1807C33.0155 36.2808 32.7788 36.2963 32.4859 36.2994C31.8971 36.2994 31.0839 36.2994 30.1897 36.2653C29.2956 36.2312 28.4824 36.166 27.8967 36.1071C27.6038 36.0791 27.367 36.0512 27.205 36.0326L27.0181 36.0047H26.9526C26.9744 36.0027 26.9963 36.0027 27.0181 36.0047H27.2081L27.8998 36.0574C28.4855 36.104 29.2956 36.1598 30.1897 36.197C31.0839 36.2343 31.8971 36.2467 32.4828 36.2498H33.4362V36.2808Z" fill="#FAFAFA"/>
<path d="M41.7892 36.377C41.7654 36.387 41.7401 36.3933 41.7144 36.3957L41.4963 36.4329C41.3032 36.4639 41.029 36.5043 40.6863 36.5477C40.0008 36.6377 39.0506 36.7276 37.9975 36.768C36.9445 36.8083 35.988 36.768 35.2995 36.7431C34.9536 36.7245 34.6763 36.7059 34.4832 36.6873L34.262 36.6656H34.1841C34.2099 36.6616 34.2362 36.6616 34.262 36.6656H34.4832L35.2995 36.7028C35.9911 36.7276 36.9414 36.7431 37.9944 36.7028C39.0475 36.6625 39.9946 36.5787 40.68 36.5042L41.4901 36.4081L41.7113 36.3833L41.7892 36.377Z" fill="#FAFAFA"/>
<path d="M37.2342 41.7413H37.1719L36.9943 41.7692C36.8354 41.7909 36.608 41.8158 36.3276 41.8406C35.5928 41.8988 34.8552 41.9133 34.1187 41.884C33.3814 41.8506 32.6469 41.7728 31.9191 41.6513C31.6418 41.6017 31.4175 41.5583 31.2617 41.5241L31.0872 41.4807L31.0249 41.4621H31.0872L31.2679 41.4931C31.4237 41.521 31.648 41.5583 31.9284 41.5986C32.6512 41.7075 33.3791 41.779 34.1093 41.8127C34.8435 41.8421 35.5787 41.8338 36.312 41.7878L36.9787 41.7382L37.1594 41.7227L37.2342 41.7413Z" fill="#FAFAFA"/>
<path d="M41.7892 41.2944C41.7892 41.313 40.895 41.3906 39.7921 41.4681C38.6892 41.5457 37.7888 41.5953 37.7888 41.5798C37.7888 41.5643 38.6799 41.4837 39.7859 41.403C40.8919 41.3223 41.7892 41.2758 41.7892 41.2944Z" fill="#FAFAFA"/>
<path d="M35.9194 45.2284C35.8645 45.2339 35.8092 45.2339 35.7543 45.2284C35.6483 45.2284 35.4926 45.2098 35.3056 45.185C34.8134 45.1186 34.327 45.0149 33.8507 44.8747C33.3741 44.7334 32.9095 44.555 32.4611 44.3411C32.2898 44.2573 32.1496 44.1891 32.0623 44.1363C32.0113 44.1136 31.964 44.0833 31.9221 44.0464L32.0717 44.1115L32.4798 44.3008C32.9319 44.4999 33.396 44.6709 33.8693 44.8127C34.3426 44.953 34.8244 45.0629 35.3119 45.1415L35.7543 45.2067C35.81 45.2074 35.8654 45.2147 35.9194 45.2284Z" fill="#FAFAFA"/>
<path d="M39.4396 38.8528C39.4396 38.8528 39.343 38.5115 39.1903 37.891C39.0377 37.2705 38.8258 36.3708 38.589 35.2539C38.1154 33.017 37.5453 29.9114 36.9814 26.4707C36.8497 25.6303 36.7893 24.7803 36.8007 23.9298C36.8212 23.136 36.947 22.3484 37.1745 21.5874C37.5794 20.3053 38.1908 19.0972 38.9847 18.0102C39.508 17.274 40.075 16.5695 40.6827 15.9005C41.1126 15.4228 41.3619 15.1746 41.3619 15.1746C41.3619 15.1746 41.3058 15.2428 41.1936 15.3669L40.6982 15.9316C40.0968 16.606 39.535 17.3146 39.0158 18.0537C38.2319 19.1396 37.6291 20.3444 37.2306 21.6215C37.0077 22.378 36.8852 23.1603 36.8661 23.9484C36.8554 24.7947 36.9148 25.6404 37.0437 26.477C37.6076 29.9145 38.1715 33.0232 38.6357 35.2601C38.8663 36.377 39.0688 37.2798 39.2152 37.9003C39.2838 38.2023 39.3399 38.4412 39.3835 38.617L39.4396 38.8528Z" fill="#FAFAFA"/>
<path d="M39.4336 42.883C39.3943 42.8499 39.3578 42.8135 39.3246 42.7744C39.2273 42.6715 39.1377 42.5616 39.0566 42.4456C38.5181 41.6727 38.2689 40.7361 38.3525 39.7991C38.3654 39.6581 38.3883 39.5181 38.4211 39.3803C38.4301 39.3295 38.4436 39.2797 38.4616 39.2314C38.4771 39.2314 38.4242 39.4485 38.3993 39.8022C38.3393 40.7275 38.5843 41.6469 39.0971 42.4207C39.2965 42.7124 39.443 42.8737 39.4336 42.883Z" fill="#FAFAFA"/>
<path d="M36.3183 45.4953C36.2499 45.4 36.1954 45.2955 36.1563 45.185C36.0444 44.9212 35.9639 44.6453 35.9164 44.3629C35.8688 44.0801 35.8542 43.7927 35.8728 43.5066C35.8759 43.3882 35.8927 43.2706 35.9227 43.156C35.9301 43.2738 35.9301 43.3919 35.9227 43.5097C35.9189 43.7913 35.9408 44.0728 35.9881 44.3505C36.0343 44.6295 36.1063 44.9037 36.2031 45.1695C36.2473 45.276 36.2858 45.3847 36.3183 45.4953Z" fill="#FAFAFA"/>
<path d="M33.0658 43.094C33.0351 43.0518 33.008 43.0072 32.9848 42.9605C32.9196 42.8367 32.8613 42.7093 32.8103 42.5789C32.6421 42.1473 32.5372 41.6939 32.4988 41.2325C32.4612 40.7706 32.4895 40.3058 32.5829 39.8519C32.6103 39.7152 32.6467 39.5804 32.6919 39.4485C32.7055 39.3981 32.7243 39.3492 32.748 39.3027C32.748 39.3027 32.6919 39.5168 32.6296 39.8612C32.464 40.7663 32.5436 41.6991 32.8602 42.5634C32.9785 42.8954 33.0814 43.0877 33.0658 43.094Z" fill="#FAFAFA"/>
<path d="M33.1124 46.1127C33.0994 46.0756 33.091 46.0371 33.0875 45.9979C33.0875 45.9204 33.0563 45.8118 33.0407 45.6877C33.0096 45.4146 32.9784 45.033 32.966 44.6142C32.9535 44.1954 32.966 43.8138 32.9847 43.5407C32.9847 43.4042 33.0033 43.2925 33.0127 43.215C33.0133 43.1747 33.0207 43.1349 33.0345 43.0971C33.0432 43.2448 33.0432 43.393 33.0345 43.5407C33.0345 43.8169 33.0345 44.1954 33.0345 44.6142C33.0345 45.033 33.0688 45.4084 33.0906 45.6815C33.1073 45.8246 33.1146 45.9686 33.1124 46.1127Z" fill="#FAFAFA"/>
<path d="M24.4727 25.9806C24.4883 25.9806 26.3857 28.8783 28.7099 32.471C31.0341 36.0637 32.9097 38.9862 32.8941 38.9862C32.8785 38.9862 30.9811 36.0916 28.6569 32.4958C26.3327 28.9 24.4603 25.9899 24.4727 25.9806Z" fill="#FAFAFA"/>
<path d="M31.8787 27.0292C31.8787 27.0292 31.8942 27.0727 31.9192 27.1533L32.0282 27.5101C32.1186 27.8204 32.2556 28.2733 32.4332 28.8256C32.7853 29.9332 33.3149 31.4503 33.991 33.0915C34.6671 34.7327 35.365 36.1785 35.8946 37.2116C36.1595 37.7297 36.3807 38.1424 36.5364 38.4309C36.605 38.5612 36.6642 38.6698 36.7109 38.7629C36.7576 38.856 36.7701 38.8777 36.7701 38.8777L36.7016 38.7691L36.5146 38.4433C36.3526 38.161 36.1252 37.7484 35.8541 37.2333C35.312 36.2033 34.6079 34.7514 33.9287 33.1163C33.2495 31.4813 32.7323 29.9518 32.3896 28.8411C32.2183 28.2857 32.0781 27.8328 32.0033 27.5194L31.9067 27.1564C31.8849 27.0727 31.8787 27.0292 31.8787 27.0292Z" fill="#FAFAFA"/>
<path d="M26.2115 35.6728C26.2115 35.6728 26.1647 35.6324 26.0775 35.5456L25.7036 35.1671C25.5385 35.0026 25.336 34.801 25.1179 34.5466C24.8998 34.2922 24.6381 34.0284 24.3795 33.6996C24.1209 33.3707 23.8249 33.0263 23.5383 32.6292C23.2517 32.2321 22.9494 31.8071 22.641 31.351C21.3313 29.3481 20.3089 27.173 19.6033 24.8885C19.4507 24.3611 19.2918 23.8616 19.1921 23.3838C19.0924 22.906 18.9802 22.453 18.9054 22.0528C18.8307 21.6526 18.7746 21.2741 18.7247 20.9452C18.6749 20.6163 18.6437 20.3247 18.625 20.1044L18.5752 19.5739C18.5752 19.4498 18.5752 19.3878 18.5752 19.3878C18.5752 19.3878 18.5752 19.4498 18.6001 19.5708C18.625 19.6918 18.6375 19.8811 18.6624 20.1044C18.6874 20.3278 18.7185 20.6163 18.7746 20.9421C18.8307 21.2679 18.8712 21.6402 18.9615 22.0466C19.0519 22.453 19.1298 22.8998 19.2544 23.3714C19.379 23.8429 19.5192 24.3455 19.6719 24.873C20.0346 26.0072 20.4674 27.1179 20.9679 28.1988C21.4798 29.2736 22.0594 30.315 22.7033 31.3169C23.0149 31.7729 23.2953 32.2104 23.5944 32.5982C23.8935 32.986 24.1645 33.349 24.4293 33.6716C24.6942 33.9943 24.9434 34.2735 25.1584 34.5248C25.3734 34.7761 25.5696 34.9809 25.7348 35.1453L26.1055 35.5331L26.2115 35.6728Z" fill="#FAFAFA"/>
<path d="M22.7159 23.9764C22.6425 23.9688 22.5696 23.9564 22.4978 23.9392L21.9121 23.8213C21.4167 23.722 20.7313 23.5948 19.968 23.4769C19.2047 23.359 18.513 23.2722 18.0114 23.2163L17.4163 23.1512L17.1982 23.1232C17.2718 23.1165 17.3459 23.1165 17.4194 23.1232L18.0176 23.1698C18.5192 23.2132 19.214 23.2908 19.9773 23.4087C20.7406 23.5266 21.4261 23.6631 21.9214 23.7748C22.1676 23.8275 22.367 23.8771 22.504 23.9113C22.5762 23.9275 22.6471 23.9493 22.7159 23.9764Z" fill="#FAFAFA"/>
<path d="M22.0519 31.4099L21.9989 31.5619C21.9553 31.6767 21.9024 31.8194 21.84 31.9932C21.6998 32.3655 21.5285 32.9239 21.3166 33.5941C20.9023 34.9561 20.4941 36.8827 19.9894 38.9955C19.5888 40.8127 18.9912 42.5811 18.2073 44.2698C17.9601 44.7763 17.6823 45.2674 17.3754 45.7404C17.1542 46.0723 17.0203 46.2461 17.0203 46.2461L17.1044 46.1127C17.1605 46.0227 17.2508 45.8986 17.3536 45.728C17.6515 45.2514 17.922 44.7583 18.1637 44.2512C18.9358 42.5599 19.5259 40.792 19.924 38.9769C20.4287 36.8641 20.8586 34.9437 21.273 33.5786C21.4883 32.8407 21.7484 32.1164 22.0519 31.4099Z" fill="#FAFAFA"/>
<path d="M19.2919 27.2495C19.3074 27.2495 18.6282 29.3716 17.7715 31.9746C16.9147 34.5776 16.2137 36.6873 16.1856 36.6811C16.1576 36.6749 16.8493 34.559 17.7092 31.956C18.5691 29.353 19.2732 27.2433 19.2919 27.2495Z" fill="#FAFAFA"/>
<path d="M22.133 36.0698C22.1139 36.0434 22.0972 36.0154 22.0831 35.9861L21.9523 35.741C21.8401 35.53 21.6687 35.226 21.4444 34.8599C20.2741 32.9459 18.7242 31.2895 16.8895 29.992C16.5405 29.7438 16.2476 29.5515 16.042 29.4274L15.8083 29.2785C15.7554 29.2443 15.7273 29.2257 15.7305 29.2226C15.7602 29.2335 15.7885 29.2481 15.8146 29.2661L16.0576 29.4057C16.2663 29.5236 16.5623 29.7159 16.9175 29.9548C18.773 31.2388 20.3305 32.904 21.4849 34.8381C21.703 35.2073 21.8681 35.5145 21.9741 35.7317C22.0177 35.8247 22.0582 35.9054 22.0956 35.9799C22.1096 36.0092 22.1221 36.0392 22.133 36.0698Z" fill="#FAFAFA"/>
<path d="M20.0767 42.1415C20.0738 42.1136 20.0738 42.0855 20.0767 42.0577C20.0767 41.9832 20.0767 41.9057 20.0767 41.8157C20.0767 41.7257 20.0767 41.5861 20.0425 41.4403C20.0082 41.2945 20.0113 41.1301 19.9739 40.9439C19.8991 40.5146 19.7886 40.0923 19.6437 39.6812C19.2907 38.6722 18.74 37.7432 18.0236 36.9479C17.7363 36.6249 17.4237 36.3251 17.0889 36.0513C16.9456 35.9303 16.8054 35.8372 16.6839 35.741C16.5844 35.6645 16.4803 35.5941 16.3723 35.5301L16.1698 35.3997L16.0981 35.3532C16.4596 35.5361 16.802 35.7544 17.1201 36.0047C17.467 36.2746 17.7902 36.5735 18.0859 36.8982C18.8151 37.6946 19.3709 38.6326 19.7184 39.6533C19.8604 40.0671 19.9647 40.4928 20.03 40.9253C20.0864 41.3281 20.102 41.7355 20.0767 42.1415Z" fill="#FAFAFA"/>
<path d="M15.9609 46.8758L15.9796 46.82L16.0419 46.6587C16.098 46.5221 16.1728 46.3205 16.2631 46.0692C16.5015 45.4196 16.6971 44.7553 16.8489 44.0805C16.995 43.405 17.099 42.7211 17.1604 42.0328C17.1822 41.766 17.2009 41.5519 17.2072 41.4123L17.2227 41.2417C17.2227 41.2045 17.2227 41.1828 17.2227 41.1828C17.2227 41.1828 17.2227 41.2045 17.2227 41.2448V41.4154C17.2227 41.5644 17.2227 41.7784 17.1916 42.0359C17.1377 42.7292 17.0335 43.4177 16.88 44.096C16.7274 44.7737 16.5254 45.4394 16.2756 46.0878C16.179 46.336 16.0949 46.5346 16.0326 46.668L15.9609 46.8231C15.9734 46.8603 15.9641 46.8789 15.9609 46.8758Z" fill="#FAFAFA"/>
<path d="M11.9453 31.1679C11.9453 31.1679 11.9889 31.3913 12.045 31.7884C12.1011 32.1855 12.1665 32.7936 12.2195 33.532C12.3441 35.0088 12.3472 37.0564 12.5809 39.2995C12.6918 40.3533 12.8898 41.3962 13.1728 42.4175C13.399 43.2514 13.7122 44.0594 14.1075 44.8282C14.3795 45.3447 14.6975 45.8358 15.0578 46.2957C15.1793 46.4632 15.2946 46.578 15.3693 46.6617C15.4441 46.7455 15.4753 46.7921 15.4753 46.7921C15.4753 46.7921 15.307 46.6462 15.0515 46.336C14.6832 45.8803 14.3588 45.391 14.0826 44.8747C13.6753 44.1063 13.3505 43.2973 13.1137 42.461C12.828 41.4358 12.629 40.3887 12.5186 39.3306C12.2849 37.0843 12.2849 35.0367 12.1727 33.5599C12.126 32.8246 12.0699 32.2289 12.0201 31.8163C11.9952 31.6271 11.9765 31.4719 11.9609 31.3447C11.9453 31.2175 11.9453 31.1679 11.9453 31.1679Z" fill="#FAFAFA"/>
<path d="M11.5311 26.6662C11.5519 26.7197 11.5685 26.7747 11.5809 26.8307C11.609 26.9392 11.6433 27.0944 11.6838 27.2898C11.7811 27.7952 11.8476 28.306 11.8832 28.8194C11.9156 29.3359 11.9156 29.854 11.8832 30.3706C11.8832 30.5692 11.8582 30.7274 11.8427 30.836C11.8388 30.8934 11.8305 30.9505 11.8177 31.0066C11.8117 30.9499 11.8117 30.8927 11.8177 30.836C11.8177 30.6871 11.8177 30.5257 11.8364 30.3675C11.8364 29.9766 11.8364 29.4368 11.8084 28.8318C11.7803 28.2268 11.69 27.69 11.6246 27.3022C11.5965 27.1409 11.5685 26.992 11.5436 26.8431C11.533 26.7847 11.5289 26.7255 11.5311 26.6662Z" fill="#FAFAFA"/>
<path d="M15.3781 33.3707C15.0867 33.5714 14.7731 33.738 14.4434 33.8671C14.0897 34.0141 13.7224 34.1263 13.3467 34.2022C12.4262 34.3942 11.4739 34.3761 10.5614 34.1494C10.1896 34.0598 9.82749 33.9341 9.4803 33.774C9.1587 33.6304 8.85367 33.4526 8.57056 33.2435C8.57056 33.2435 8.59548 33.2435 8.63598 33.2776L8.81668 33.3831C8.90893 33.4425 9.00464 33.4964 9.10332 33.5445C9.21859 33.6003 9.34633 33.6748 9.49899 33.7337C9.84562 33.8858 10.2054 34.0063 10.5739 34.0936C11.0262 34.1958 11.4874 34.2539 11.9509 34.2673C12.4151 34.2727 12.8786 34.2311 13.3343 34.1432C13.7062 34.0721 14.0711 33.9683 14.4247 33.833C14.5774 33.7803 14.7082 33.7089 14.8266 33.6562C14.9274 33.6129 15.0252 33.5632 15.1195 33.5072L15.3033 33.4079L15.3781 33.3707Z" fill="#FAFAFA"/>
<path d="M16.3597 37.3388C16.3011 37.4249 16.2366 37.5068 16.1665 37.5839C15.9823 37.799 15.7731 37.9917 15.5434 38.1579C14.7575 38.6904 13.8435 39.0052 12.8952 39.07C11.9558 39.1235 11.0135 39.0568 10.0912 38.8714C9.73599 38.8063 9.44936 38.7473 9.25308 38.7039L9.02564 38.6543L8.94775 38.6325C8.9746 38.6285 9.00192 38.6285 9.02876 38.6325L9.2562 38.6698L10.1005 38.8156C11.0242 38.9899 11.966 39.0503 12.9045 38.9955C13.8429 38.9313 14.7487 38.6267 15.534 38.1113C15.7678 37.9514 15.9831 37.7662 16.1759 37.5591C16.2849 37.4102 16.3534 37.3202 16.3597 37.3388Z" fill="#FAFAFA"/>
<path d="M16.7214 41.1269C16.6925 41.2243 16.6571 41.3196 16.6155 41.4123C16.5019 41.6655 16.3564 41.9032 16.1824 42.1197C15.5871 42.8272 14.7876 43.3352 13.8925 43.5748C13.0028 43.801 12.0809 43.8745 11.1664 43.7919C10.8143 43.7671 10.5432 43.7361 10.3376 43.7082L10.1133 43.6772C10.0867 43.6762 10.0603 43.671 10.0354 43.6616C10.0623 43.6589 10.0895 43.6589 10.1164 43.6616L10.3407 43.6803C10.537 43.6989 10.8174 43.7237 11.1664 43.7423C12.0766 43.8127 12.9922 43.7341 13.8769 43.5096C14.7587 43.2726 15.5488 42.7776 16.145 42.0887C16.3208 41.8771 16.4714 41.646 16.5937 41.3999C16.6778 41.2262 16.7152 41.1238 16.7214 41.1269Z" fill="#FAFAFA"/>
<path d="M55.6939 42.7526C55.6939 42.7713 54.862 43.1218 53.8245 43.5345C52.7871 43.9471 51.9272 44.276 51.9209 44.2573C51.9147 44.2387 52.7559 43.8913 53.7903 43.4755C54.8246 43.0598 55.6876 42.7371 55.6939 42.7526Z" fill="#FAFAFA"/>
<path d="M53.9954 38.2323C53.9343 38.2991 53.8628 38.3557 53.7836 38.3998C53.5982 38.5203 53.3996 38.6192 53.1916 38.6946C52.9846 38.7715 52.7692 38.8236 52.5498 38.8497C52.4591 38.865 52.3664 38.865 52.2756 38.8497C52.5784 38.7969 52.8772 38.7233 53.1698 38.6294C53.4535 38.5153 53.7293 38.3827 53.9954 38.2323Z" fill="#FAFAFA"/>
<path d="M53.2415 33.6158C53.0857 33.6629 52.9244 33.6889 52.7617 33.6934C52.6003 33.7144 52.437 33.7144 52.2756 33.6934C52.4312 33.6458 52.5927 33.6207 52.7554 33.6189C52.9167 33.5978 53.08 33.5968 53.2415 33.6158Z" fill="#FAFAFA"/>
<path d="M52.3635 30.7119C52.2503 30.6739 52.1448 30.6161 52.0519 30.5413C51.9515 30.4824 51.8619 30.4069 51.7871 30.3179C51.9017 30.3528 52.0077 30.4109 52.0987 30.4886C52.2002 30.5459 52.29 30.6217 52.3635 30.7119Z" fill="#FAFAFA"/>
<path d="M51.4193 27.7862C51.4193 27.7862 51.438 27.8482 51.466 27.963C51.494 28.0778 51.5377 28.2733 51.5844 28.4718C51.6872 28.9155 51.8212 29.5608 51.9645 30.3613C52.3254 32.4469 52.5336 34.556 52.5876 36.6717C52.5824 37.8361 52.6783 38.9986 52.8742 40.1465C52.9726 40.6437 53.123 41.1293 53.3229 41.5954C53.5129 42.0297 53.731 42.4207 53.9055 42.7867C54.2216 43.3572 54.3907 43.9968 54.3978 44.6482C54.3946 44.8236 54.3684 44.9978 54.3199 45.1664C54.3048 45.2258 54.285 45.2839 54.2607 45.3401C54.2607 45.3401 54.2794 45.2781 54.3074 45.1633C54.3504 44.9949 54.3724 44.8219 54.3728 44.6482C54.3536 44.0073 54.1794 43.3805 53.865 42.8209C53.6874 42.4548 53.4693 42.067 53.273 41.6295C53.07 41.1606 52.9165 40.6719 52.815 40.1713C52.6156 39.0207 52.5176 37.8549 52.5222 36.6872C52.462 34.5729 52.2538 32.4653 51.8991 30.3799C51.7651 29.5794 51.6374 28.9341 51.5439 28.4904C51.4972 28.2826 51.4629 28.1119 51.4348 27.9785C51.4068 27.8451 51.4193 27.7862 51.4193 27.7862Z" fill="#FAFAFA"/>
<g opacity="0.3">
<path opacity="0.3" d="M15.2786 32.8185C16.0776 33.9029 16.7792 35.0553 17.3753 36.2622C17.9729 37.4739 18.2922 38.8029 18.31 40.1528C18.31 41.2293 17.9611 42.399 17.0638 43.0008C16.981 39.5739 16.3803 36.1789 15.2817 32.9301" fill="black"/>
</g>
<g opacity="0.3">
<path opacity="0.3" d="M22.5225 23.1541C22.5225 24.2152 23.3419 25.0777 24.1052 25.8161C25.6069 27.2712 27.2207 28.7914 29.2832 29.2009C29.3144 28.3415 29.3424 27.4852 29.3736 26.6258C30.1643 27.3176 30.8496 28.1202 31.4081 29.0086C32.4085 27.6396 33.111 26.0778 33.4706 24.4231C33.8304 22.7729 34.074 21.0996 34.1996 19.4156L31.7726 27.1005C31.6415 26.4557 31.2983 25.8728 30.7974 25.4438C30.5043 25.1717 30.1229 25.0132 29.7225 24.997C29.4222 25.0264 29.1368 25.142 28.9012 25.3298C28.6656 25.5176 28.4898 25.7696 28.3953 26.055C28.2144 26.6281 28.1477 27.231 28.199 27.8296C26.1005 26.5969 24.2013 25.0551 22.5661 23.2565" fill="black"/>
</g>
<g opacity="0.3">
<path opacity="0.3" d="M33.0281 46.0693C34.0374 45.3703 35.1613 44.8517 36.3493 44.5366C37.2372 44.3039 38.1781 44.1736 38.9477 43.6772C39.6674 43.215 40.1596 42.4797 40.6301 41.7692C41.0985 41.1404 41.4528 40.4348 41.6769 39.6843C41.7932 39.0778 41.81 38.4565 41.7267 37.8445C41.5647 36.194 41.1971 34.5745 41.0133 32.9271C40.8295 31.2797 40.8544 29.5826 41.409 28.0313C41.8482 33.0202 42.4433 38.0183 42.8826 43.0071C39.6767 44.0185 36.3181 45.0206 33.1091 46.032" fill="black"/>
</g>
<path d="M26.1802 5.82667C26.2238 5.76772 28.1056 3.82246 29.3518 6.16174C30.598 8.50102 27.981 9.26424 27.9405 9.19909C27.9 9.13393 26.1802 5.82667 26.1802 5.82667Z" fill="#FFBE9D"/>
<path d="M28.1867 7.93647C28.1867 7.93647 28.2428 7.93647 28.3301 7.93647C28.3898 7.93278 28.4482 7.91714 28.5017 7.89049C28.5552 7.86384 28.6028 7.82671 28.6416 7.78134C28.841 7.56107 28.841 7.05847 28.6416 6.63032C28.5423 6.4257 28.3974 6.24636 28.2179 6.106C28.1564 6.04471 28.0809 5.99915 27.9979 5.97322C27.9149 5.94729 27.8268 5.94175 27.7412 5.95708C27.688 5.96995 27.6409 6.00079 27.608 6.04434C27.575 6.0879 27.5582 6.14148 27.5605 6.19597C27.5605 6.27663 27.6041 6.31697 27.5917 6.32627C27.5792 6.33558 27.5231 6.32628 27.4889 6.20838C27.4663 6.14517 27.4663 6.07614 27.4889 6.01292C27.5276 5.93041 27.5968 5.86596 27.682 5.83298C27.7889 5.80058 27.9024 5.79612 28.0115 5.82003C28.1206 5.84394 28.2218 5.89541 28.3051 5.96949C28.5134 6.11878 28.6815 6.31701 28.7943 6.54655C29.0311 7.02744 29.0248 7.5952 28.7351 7.87442C28.6823 7.92606 28.6184 7.96494 28.5482 7.98808C28.4779 8.01121 28.4033 8.01797 28.3301 8.00783C28.221 7.98922 28.1805 7.94267 28.1867 7.93647Z" fill="#EB996E"/>
<path d="M15.5874 1.19789C14.4346 1.89595 13.2632 2.60642 12.2786 4.23213C11.6555 5.25596 11.5496 6.35114 11.6306 7.5425C11.7073 8.50947 12.0289 9.4413 12.5653 10.251C13.0856 11.0049 13.4221 11.5509 14.1729 12.0752" fill="#263238"/>
<path d="M32.5947 16.2419L25.6906 3.95598C24.7816 2.34303 23.2791 1.14457 21.5 0.61325C19.7209 0.081933 17.8042 0.259275 16.1538 1.10789C15.3104 1.54339 14.5624 2.14155 13.9533 2.86757C13.3441 3.5936 12.8861 4.43299 12.6057 5.33692C12.3254 6.24085 12.2283 7.19127 12.3202 8.1329C12.4121 9.07452 12.6911 9.98855 13.141 10.8218C14.7238 13.7382 16.4654 16.8748 17.4374 18.395C19.528 21.6619 23.1514 20.1324 23.1514 20.1324C23.1514 20.1324 23.6779 21.1562 24.3384 22.422L29.2797 25.146L32.5947 16.2419Z" fill="#FFBE9D"/>
<path d="M23.1519 20.1199C24.6536 19.1835 25.8539 17.8375 26.6101 16.2418C26.6101 16.2418 27.0775 19.2543 23.5974 20.9948L23.1519 20.1199Z" fill="#EB996E"/>
<path d="M15.8148 12.3265C15.8898 12.4466 16.0081 12.5335 16.1455 12.5693C16.2829 12.6051 16.4288 12.587 16.5532 12.5189C16.616 12.4865 16.6717 12.442 16.7171 12.388C16.7625 12.334 16.7966 12.2715 16.8175 12.2042C16.8384 12.1369 16.8456 12.0662 16.8387 11.9961C16.8319 11.926 16.8111 11.858 16.7775 11.796C16.7019 11.6732 16.5813 11.5845 16.4412 11.5486C16.3011 11.5127 16.1524 11.5324 16.0267 11.6036C15.9649 11.637 15.9104 11.6823 15.8663 11.7368C15.8222 11.7913 15.7893 11.8539 15.7696 11.9211C15.7499 11.9883 15.7438 12.0587 15.7515 12.1283C15.7593 12.1979 15.7808 12.2652 15.8148 12.3265Z" fill="#263238"/>
<path d="M14.6837 11.4857C14.7802 11.5106 14.9734 11.0266 15.4812 10.7163C15.9891 10.4061 16.5187 10.4247 16.5374 10.3285C16.5374 10.2851 16.419 10.2137 16.1822 10.1951C15.8681 10.178 15.5565 10.2594 15.2912 10.4278C15.0273 10.5902 14.8213 10.8312 14.7023 11.1165C14.6089 11.3337 14.6245 11.4764 14.6837 11.4857Z" fill="#263238"/>
<path d="M20.7747 9.22088C20.8117 9.28389 20.8609 9.33899 20.9193 9.38297C20.9778 9.42695 21.0445 9.45896 21.1155 9.47713C21.1864 9.49531 21.2603 9.4993 21.3329 9.48886C21.4054 9.47843 21.4751 9.45378 21.5381 9.41634C21.6009 9.38404 21.6566 9.33953 21.7019 9.28543C21.7472 9.23134 21.7812 9.16875 21.8018 9.10137C21.8224 9.034 21.8293 8.96319 21.822 8.89313C21.8147 8.82307 21.7933 8.75517 21.7593 8.69346C21.6853 8.56967 21.5652 8.47999 21.4252 8.44396C21.2851 8.40793 21.1364 8.42847 21.0115 8.5011C20.9474 8.5317 20.8902 8.5749 20.8434 8.6281C20.7965 8.6813 20.7609 8.7434 20.7388 8.81065C20.7167 8.87791 20.7085 8.94893 20.7146 9.01943C20.7208 9.08993 20.7413 9.15846 20.7747 9.22088Z" fill="#263238"/>
<path d="M19.7184 8.48554C19.815 8.51036 20.0112 8.02637 20.5191 7.71612C21.0269 7.40587 21.5565 7.42449 21.5721 7.32831C21.5721 7.28487 21.4537 7.21041 21.217 7.1949C20.9029 7.17842 20.5914 7.25975 20.3259 7.42759C20.0619 7.58905 19.8566 7.8304 19.7402 8.11634C19.6685 8.34592 19.6685 8.48554 19.7184 8.48554Z" fill="#263238"/>
<path d="M20.2142 13.3844C19.8935 13.4715 19.5848 13.5976 19.2951 13.7598C19.158 13.8249 19.0178 13.8746 18.943 13.8001C18.8481 13.6746 18.7948 13.5228 18.7904 13.3657C18.7187 12.9779 18.6408 12.5715 18.5629 12.1465C18.2233 10.4184 17.89 9.04398 17.8214 9.04398C17.7529 9.04398 17.971 10.468 18.3106 12.1961C18.3947 12.6212 18.4788 13.0276 18.5567 13.4123C18.5729 13.6187 18.6611 13.8129 18.8059 13.9614C18.8529 13.9955 18.9072 14.0182 18.9645 14.0279C19.0218 14.0376 19.0805 14.0339 19.1362 14.0173C19.2209 13.9939 19.3017 13.9583 19.3761 13.9118C19.6775 13.7734 19.9593 13.5961 20.2142 13.3844Z" fill="#263238"/>
<path d="M22.8033 13.1889C22.7064 13.1762 22.659 13.8225 22.0783 14.2409C21.4975 14.6593 20.8186 14.552 20.7981 14.637C20.7777 14.7219 20.9436 14.7708 21.2337 14.7978C21.6126 14.8273 21.9898 14.7234 22.2997 14.5043C22.5968 14.2938 22.8002 13.9765 22.8667 13.6194C22.9081 13.3495 22.8466 13.1887 22.8033 13.1889Z" fill="#263238"/>
<path d="M20.9148 5.49159C20.7808 5.383 20.2917 5.7553 19.6686 6.04073C19.0455 6.32616 18.4411 6.45336 18.4224 6.624C18.4224 6.70777 18.5875 6.78533 18.8617 6.80394C19.2224 6.81256 19.5804 6.7394 19.9086 6.58998C20.2367 6.44056 20.5265 6.21879 20.7559 5.94145C20.9148 5.72118 20.974 5.54433 20.9148 5.49159Z" fill="#263238"/>
<path d="M14.9954 8.66554C14.8272 8.66554 14.6589 9.05335 14.338 9.42875C14.0171 9.80416 13.6682 10.0493 13.7149 10.2199C13.7367 10.2944 13.8832 10.3347 14.1013 10.2819C14.3805 10.2035 14.6279 10.0396 14.8085 9.81347C14.9931 9.59245 15.1023 9.31859 15.12 9.03163C15.1387 8.79585 15.0702 8.67485 14.9954 8.66554Z" fill="#263238"/>
<path d="M26.3699 4.96734C26.3699 4.96734 26.7251 5.72125 26.8965 6.09045C26.9588 6.22385 27.7159 7.74407 27.4168 8.0233C27.1177 8.30252 26.4135 8.34906 25.7967 7.92712C25.1798 7.50518 23.837 6.41621 23.5036 5.75538C23.0784 4.83225 22.5212 3.97533 21.8492 3.21133C21.1752 2.44007 20.2496 1.93031 19.2353 1.77177C18.7297 1.70138 18.2145 1.77164 17.7465 1.97479C17.2786 2.17793 16.8762 2.50604 16.5839 2.9228C16.2537 3.45333 16.154 4.09554 15.886 4.6633C15.6616 5.18525 15.2525 5.60698 14.7364 5.84845C14.4771 5.9632 14.1907 6.0031 13.9098 5.9636C13.6288 5.92411 13.3647 5.80681 13.1475 5.62507C12.9378 5.39913 12.796 5.11915 12.7382 4.81696C12.6803 4.51477 12.7088 4.20249 12.8203 3.9156C13.0561 3.34487 13.4296 2.84084 13.9076 2.44811C15.1609 1.26306 16.7265 0.457155 18.4221 0.124348C20.1202 -0.209815 21.882 0.135729 23.326 1.08612C24.943 2.21853 25.5287 3.18031 26.3793 4.96734" fill="#263238"/>
<path d="M13.0201 5.45753C12.883 5.30551 12.8798 5.1752 12.7396 5.16589C12.5994 5.15659 12.4997 5.47614 12.4748 5.61886C12.4748 5.66229 12.3253 5.61886 12.2817 5.61886C12.2063 5.56921 12.1408 5.5061 12.0885 5.43271C12.0293 5.30551 12.2007 5.15969 12.238 5.02318C12.2816 4.8888 12.3515 4.76437 12.4437 4.65709C12.476 4.60437 12.522 4.56129 12.5768 4.53236C12.6316 4.50343 12.6933 4.48971 12.7552 4.49265C12.8004 4.50732 12.8419 4.53116 12.8773 4.56267C12.9127 4.59418 12.9412 4.63267 12.9609 4.6757C13.0098 4.75547 13.0426 4.844 13.0574 4.93631C13.0724 5.02909 13.0524 5.12409 13.0014 5.20312" fill="#263238"/>
<path d="M19.2605 20.0549C19.2605 20.0549 19.2231 20.0549 19.1577 20.0176C19.061 19.9742 18.9674 19.9244 18.8773 19.8687C18.5472 19.6614 18.2473 19.4098 17.9862 19.121C17.2977 18.4106 16.5842 17.2595 15.877 15.941C15.1697 14.6224 14.503 13.459 14.0388 12.6027L13.4998 11.5882C13.4276 11.4648 13.3671 11.3349 13.3191 11.2003C13.4084 11.3114 13.4867 11.4309 13.5528 11.5571C13.7085 11.8177 13.9048 12.1528 14.1385 12.553C14.6276 13.3969 15.2944 14.5666 16.0078 15.8696C16.7213 17.1727 17.4067 18.333 18.061 19.0497C18.4112 19.4394 18.8151 19.7778 19.2605 20.0549Z" fill="#EB996E"/>
</svg>
